<svg xmlns="http://www.w3.org/2000/svg" width="683.639" height="211.402" viewBox="0 0 683.639 211.402">
  <g id="index_1" transform="translate(-93.547)">
    <g id="SvgjsG1781" transform="translate(93.547 0)">
      <path id="Path_1" data-name="Path 1" d="M105.55,75.038a3.757,3.757,0,1,1,3.757,3.757A3.757,3.757,0,0,1,105.55,75.038ZM193.1,93.977a4.368,4.368,0,0,1,.53,6.16L175.45,121.776a4.324,4.324,0,0,1-2.964,1.543c-.128.013-.259.018-.387.018a4.329,4.329,0,0,1-2.8-1.025l-22.088-18.536a4.379,4.379,0,0,1-.535-6.158l18.186-21.641a4.367,4.367,0,0,1,6.155-.534Zm-2.482,2.955L168.531,78.4a.492.492,0,0,0-.327-.121l-.045,0a.49.49,0,0,0-.344.178L149.627,100.1a.513.513,0,0,0,.063.721l22.088,18.536a.574.574,0,0,0,.372.118.486.486,0,0,0,.344-.178L190.682,97.65A.576.576,0,0,0,190.619,96.931ZM228.248,77.91l-71.61,85.228,14.921,22.473a12.219,12.219,0,0,1-16.3,17.335l-12.53-7.249a7.955,7.955,0,0,1-6.511-1.7l-3.364-2.548-1.992,2.371v23.456a2.56,2.56,0,0,1-.768,1.829,4.406,4.406,0,0,1-.744,1.188A4.524,4.524,0,0,1,126,221.772H57.2l-.1-.085a4.508,4.508,0,0,1-2.543-1.4,4.439,4.439,0,0,1-.745-1.19,2.568,2.568,0,0,1-.286-.412l-1.681-1.41a.585.585,0,0,0-.722.063L47.4,221.772H36.078a4.5,4.5,0,0,1-3.447-7.4l6.853-8.156a12.135,12.135,0,0,1-2.224-1.182l-23.8-16.4a12.218,12.218,0,0,1-2.3-18.061l40.468-46.723a12.142,12.142,0,0,1,8.762-4.18,4.5,4.5,0,0,1,4.013-2.482h4.717a4.5,4.5,0,0,1,4.189,2.859h1.66v-8.931c-7.544-4.446-12.109-11.689-14.846-20.4a5.562,5.562,0,0,1-1.03.1c-3.225,0-6.586-2.726-8.248-6.992a12.292,12.292,0,0,1-.706-6.9,6.459,6.459,0,0,1,3.782-4.909,5.328,5.328,0,0,1,.538-.13,85.161,85.161,0,0,1-1.723-15.148,17.5,17.5,0,0,1-1.127-1.843,3.073,3.073,0,0,1-.251-.68,1.9,1.9,0,0,1-.911-1.6c0-23.3,18.466-42.246,41.165-42.246S132.78,29.321,132.78,52.616a1.9,1.9,0,0,1-.911,1.6,3.063,3.063,0,0,1-.252.681c-.127.244-.289.461-.426.7a83.144,83.144,0,0,1-1.622,16.323c.137.041.28.048.415.1a6.466,6.466,0,0,1,3.783,4.908,12.329,12.329,0,0,1-.706,6.9c-1.663,4.266-5.025,6.992-8.25,6.992a5.561,5.561,0,0,1-1.013-.092c-2.735,8.746-7.3,16.011-14.862,20.451v8.876h1.66a4.485,4.485,0,0,1,3.647-2.8l66.531-79.183a4.368,4.368,0,0,1,6.158-.535l5.61,4.7a4.371,4.371,0,0,1,.535,6.158L178.8,65.38a.513.513,0,0,0,.063.721L200.95,84.636a.5.5,0,0,0,.721-.062l14.275-16.992a4.37,4.37,0,0,1,6.158-.536l5.61,4.707a4.369,4.369,0,0,1,.535,6.156Zm-99.667-2.3a2.3,2.3,0,0,0-1.8.237,89.2,89.2,0,0,1-1.933,11.093c1.472-.042,3.535-1.731,4.619-4.519a8.509,8.509,0,0,0,.528-4.7A2.74,2.74,0,0,0,128.581,75.61ZM55.319,50.687h73.553c0-.054-.013-.106-.016-.161A38.525,38.525,0,0,0,108.95,18.635a36.288,36.288,0,0,0-34.781.065,38.527,38.527,0,0,0-19.8,31.826c0,.054-.013.106-.016.161h.966Zm3.754,36.258a88.765,88.765,0,0,1-1.944-11.113,2.825,2.825,0,0,0-1.224-.326,1.618,1.618,0,0,0-.584.1,2.741,2.741,0,0,0-1.407,2.115,8.53,8.53,0,0,0,.526,4.7C55.529,85.217,57.6,86.916,59.074,86.945Zm2.182-27.876a13.539,13.539,0,0,0,5.784,1.314h49.149c.134,0,.263-.021.4-.024a13.172,13.172,0,0,0,9.277-4.063c.132-.135.269-.264.4-.4a13.467,13.467,0,0,0,1.061-1.345H55.909c.061.089.132.17.2.257a13.479,13.479,0,0,0,1.946,2.172c.329.292.673.565,1.028.822.3.219.617.412.935.605A13.359,13.359,0,0,0,61.256,59.069Zm14.26,47.738A25.392,25.392,0,0,0,78.4,108.52a32.79,32.79,0,0,0,13.649,3.441,32.292,32.292,0,0,0,13.66-3.5,25.264,25.264,0,0,0,2.712-1.614c5.754-4.038,9.479-10.351,11.845-18.456.271-.93.537-1.867.773-2.844q.94-3.889,1.542-8.247c.157-1.139.285-2.322.412-3.507.059-.547.126-1.082.178-1.638l-1.661-2.291a40.369,40.369,0,0,1-7.931-5.62H67.039a17.428,17.428,0,0,1-6.7-1.349c-.054.3-.105.6-.154.911q.222,5.227.731,9.987c.127,1.188.256,2.374.415,3.516q.6,4.348,1.542,8.22c.237.978.5,1.918.777,2.849C66.016,96.463,69.751,102.765,75.516,106.807Zm-1.893,18.365c3.992,3.567,10.7,5.917,18.329,5.917a32.688,32.688,0,0,0,12.708-2.439l3.984-4.741h-1.638a1.93,1.93,0,0,1-1.929-1.929v-8.89a39.431,39.431,0,0,1-13.026,2.724,39.784,39.784,0,0,1-13.222-2.769v8.934a1.93,1.93,0,0,1-1.929,1.929H73.623v1.263ZM60.938,180.686l4.407-5.245v-7.769a4.507,4.507,0,0,1,4.5-4.5h5.808l5.429-6.462,1.621-1.93.308-.367H74.266a4.49,4.49,0,0,1-3.393-1.563,4.4,4.4,0,0,1-1.109-2.9v-28.3a.626.626,0,0,0-.643-.605H64.4a.626.626,0,0,0-.643.605v.324L63.741,147.2l0,5.617-.2,1.967-.194,1.93Zm-9.81,4.228c.092.063.16.147.25.212a11.769,11.769,0,0,1,1.664.443V159.55L38.571,176.26Zm-.717,28.534-7.755-5.005-7.07,8.415a.642.642,0,0,0,.492,1.055H45.6l2.568-3.055A4.339,4.339,0,0,1,50.411,213.449Zm5.514-1.819a.777.777,0,0,0-.2-.909l-6.46-4.168a1.849,1.849,0,0,1-.313-.344,1.879,1.879,0,0,1-.568-1.366,1.926,1.926,0,0,1,1.036-1.62,2.287,2.287,0,0,1,2.125-.013l1.009.651.483.312,1.56,1.006,6.329,4.083a.647.647,0,0,0,.43.073.637.637,0,0,0,.478-.271.667.667,0,0,0-.2-.909l-6.89-4.446-1.264-.816-.279-.18a1.875,1.875,0,0,1-.164-.158,1.9,1.9,0,0,1-.677-1.06,1.929,1.929,0,0,1,.27-1.455,2.1,2.1,0,0,1,.407-.421,2.028,2.028,0,0,1,2.156-.377,1.517,1.517,0,0,1,.2.072l.151.1,1.472.95,5.424,3.5,3.058,1.974a.653.653,0,0,0,.495.085.642.642,0,0,0,.412-.281.662.662,0,0,0-.195-.909l-9.047-5.841-1.059-.684a1.838,1.838,0,0,1-.142-.138,2.946,2.946,0,0,1-.7-1.085,1.925,1.925,0,0,1,.279-1.462c.006-.009.017-.014.023-.024a2.16,2.16,0,0,1,.816-.677,2.1,2.1,0,0,1,1.217-.259,1.667,1.667,0,0,1,.7.248l1.137.734,6.478,4.181.82.529a.673.673,0,0,0,.909-.2.663.663,0,0,0-.2-.907l-.677-.442L59.6,194.02l-3.116-2.033-.523-.341-.082-.054-1.023-.668-1.148-.749c-.168-.107-.339-.183-.509-.277l-.156-.084a8.39,8.39,0,0,0-3.926-1.018,9.089,9.089,0,0,0-7.4,4.047,8.681,8.681,0,0,0-.8,7.5,9.578,9.578,0,0,0,3.682,4.756l.564.364,2.071,1.336,5.814,3.752.958.618,1.016.656a.666.666,0,0,0,.875-.175C55.9,211.642,55.917,211.643,55.925,211.63Zm15.657,6.283L64.4,211.886a4.481,4.481,0,0,1-4.811,1.008,4.6,4.6,0,0,1-.422.829,4.342,4.342,0,0,1-3.187,1.989l1.329,1.115,1.3,1.086Zm18.051,0,13.529-16.1a.513.513,0,0,0-.063-.721l-1.91-1.6H82.71a17.309,17.309,0,0,1-12.292-5.113l-1.137,1.353.275.179a4.522,4.522,0,0,1,1.34,6.238,4.526,4.526,0,0,1-1,1.1,4.594,4.594,0,0,1,.381,1.083,4.481,4.481,0,0,1-2.756,5.137l10.064,8.447H89.633Zm37-.661L124.99,200.8l-14.376,17.11H126a.644.644,0,0,0,.49-.214A.568.568,0,0,0,126.637,217.253ZM150.6,175l-2.4-1.821-1.54-1.167-3.749-2.84a5.13,5.13,0,0,0-3.105-1.043,5.189,5.189,0,0,0-1.543.265l5.45,4.128,1.54,1.166.33.25a1.885,1.885,0,0,1-.876,3.4,1.425,1.425,0,0,1-1.455-.325l-.484-.366-7.616-5.768-1.213,1.6,7.535,5.706.567.429a2,2,0,0,1,.372,2.7,1.927,1.927,0,0,1-1.54.764c-.045,0-.089-.019-.134-.022a1.909,1.909,0,0,1-1.029-.37l-.721-.546-1.54-1.166-5.839-4.422-1.213,1.6.467.353,6.831,5.173.8.607a1.875,1.875,0,0,1,.57.76,1.9,1.9,0,0,1-1.739,2.707,1.931,1.931,0,0,1-.472-.076,1.906,1.906,0,0,1-.691-.316l-.955-.724-4.346-3.291-2.034-1.54a5.193,5.193,0,0,0,.035.872,5.127,5.127,0,0,0,1.995,3.407l0,0,1.4,1.059,3.08,2.332,3.21,2.431a5.159,5.159,0,0,0,7.225-1l5.828-7.693A5.166,5.166,0,0,0,150.6,175ZM225.231,74.709,219.621,70a.573.573,0,0,0-.721.063L204.625,87.057a4.375,4.375,0,0,1-6.158.535L176.382,69.056a4.378,4.378,0,0,1-.535-6.159l14.275-16.99a.576.576,0,0,0-.06-.719l-5.612-4.707a.465.465,0,0,0-.372-.118.5.5,0,0,0-.349.181L60.254,187.5l-1.271,1.512,1.05.685,5.992,3.909,1.956-2.328,9.357-11.138A4.376,4.376,0,0,1,83.5,179.6l22.083,18.536a4.379,4.379,0,0,1,.536,6.158L94.673,217.913h10.6a.641.641,0,0,0,.491-.226l22.147-26.358,1.863-2.217-1.249-.946a9.627,9.627,0,0,1-3.46-5.86l-.032-.315c-.008-.067,0-.134-.008-.2l-.011.013-1.722,2.049-6.188,7.364a4.326,4.326,0,0,1-2.088,1.373,4.4,4.4,0,0,1-.88.17c-.128.013-.258.018-.384.018a5.092,5.092,0,0,1-2.8-1.025l-.163-.137-21.921-18.4a4.365,4.365,0,0,1-.535-6.155l.025-.03,18.156-21.611a4.345,4.345,0,0,1,2.964-1.545,4.744,4.744,0,0,1,.806.014,4.328,4.328,0,0,1,1.929.68,4.271,4.271,0,0,1,.457.313l1.472,1.236,20.613,17.3a4.32,4.32,0,0,1,1.231,1.746,8.983,8.983,0,0,1,9.255.934h0l2.364,1.791,6.807-8.1,70.88-84.36A.573.573,0,0,0,225.231,74.709ZM118.559,167.673v14.451c0,.49-.034.973-.074,1.453l4.273-5.085-2.18-21.782-.017-.166-2.1-1.764-4.467-3.75a4.42,4.42,0,0,1-.96,1.821,4.49,4.49,0,0,1-3.393,1.563h-5.644l-.308.367-1.621,1.93-5.429,6.462h17.421A4.508,4.508,0,0,1,118.559,167.673Zm45.9-32.818L146.28,156.5a4.336,4.336,0,0,1-2.969,1.543c-.128.013-.256.018-.384.018a4.329,4.329,0,0,1-2.8-1.025l-20.194-16.948-1.892-1.588a4.366,4.366,0,0,1-.535-6.158L135.684,110.7a4.372,4.372,0,0,1,6.155-.539L163.927,128.7A4.375,4.375,0,0,1,164.462,134.855Zm-3.02-3.2-22.083-18.536a.513.513,0,0,0-.719.063l-8.6,10.237a12.155,12.155,0,0,1,1.19,1.453l16.148,24.322,14.129-16.82A.508.508,0,0,0,161.442,131.652ZM91,90.867h3.4a1.929,1.929,0,1,0,0-3.859H91.434V82.036a1.929,1.929,0,1,0-3.859,0v5.409A3.425,3.425,0,0,0,91,90.867ZM78.355,75.038A3.757,3.757,0,1,0,74.6,78.795,3.757,3.757,0,0,0,78.355,75.038Zm13.6,28.519c4.565,0,9.444-1.11,9.444-4.226a1.929,1.929,0,0,0-3.767-.588,13.319,13.319,0,0,1-5.676.955,13.294,13.294,0,0,1-5.678-.956,1.93,1.93,0,0,0-3.767.589C82.508,102.446,87.386,103.556,91.952,103.556Z" transform="translate(-8.178 -10.37)" fill="#fff"/>
    </g>
    <g id="SvgjsG1782" transform="translate(357 74)">
      <path id="Path_2" data-name="Path 2" d="M68.214,67.989h-11.5L53.059,26.1,38.981,67.989H31.519L17.441,26.1,13.749,67.989H2.209L6.864,12.407H23.326L35.173,47.294l12-34.887H63.637Zm36.811-39.541H116.1V67.989H105.6l-.269-4.77c-2.77,3.5-7.154,5.539-12.578,5.539-9.5,0-14.732-4.962-14.732-13.693V28.447H89.139V52.68c0,5.231,3.27,7.154,7.116,7.154,4.577,0,8.731-2.308,8.77-9.578V28.448Zm33.156,6.269c2-3.5,7.193-6.731,12.924-6.731V37.87c-8.385,0-12.386,2.462-12.386,10.847V67.988H127.565V28.447h10.616v6.27ZM194.8,47.641l-.115,2.654h-29.31c.462,6.577,4.846,9.731,10.116,9.731,3.962,0,7.039-1.846,8.539-5.346l10.155,1.5c-2.616,8-9.731,12.578-18.617,12.578-12.77,0-21.118-7.539-21.118-20.541S163.029,27.6,175.223,27.6c11.193,0,19.54,6.193,19.578,20.04ZM175.3,35.449c-5.039,0-8.539,2.346-9.616,7.616h18.155c-.577-5.039-4-7.616-8.539-7.616Zm38.539-.733c2-3.5,7.193-6.731,12.924-6.731V37.87c-8.385,0-12.386,2.462-12.386,10.847V67.988H203.223V28.447h10.616v6.27Zm76.7-22.309h12.27L282.268,67.989H269.575L249.151,12.407h12.232L275.96,54.526Zm24.808,10.117a6.366,6.366,0,1,1,6.347-6.385A6.427,6.427,0,0,1,315.347,22.524Zm-5.654,45.465V28.448h11.155V67.989Zm48.848,0L345.81,51.372H343.5V67.989H332.309V8.907H343.5V43.679h2.077L358,28.447h12.539L354.964,46.794,372,67.989H358.541Zm51.544-10.732a36.916,36.916,0,0,0,.962,9.654v1.077H400.7l-.885-4.308c-2.962,3.577-8.078,5.077-12.693,5.077-6.231,0-12.309-2.77-12.309-11,0-8.193,6.116-10.962,14.386-12.77l6.5-1.462c2.808-.654,3.808-1.615,3.808-3.231,0-3.885-3.539-4.962-6.654-4.962-4,0-7.039,1.577-7.731,6.039L375.314,39.6c1.654-8.193,7.654-11.924,18.155-11.924,7.924,0,16.617,2.346,16.617,14.27V57.257Zm-19.5,4c5.27,0,9.5-3.5,9.5-11.347L390.7,52.564c-3.077.731-5.308,1.808-5.308,4.462,0,2.846,2.346,4.231,5.193,4.231Zm40.886-26.541c2-3.5,7.193-6.731,12.924-6.731V37.87c-8.385,0-12.386,2.462-12.386,10.847V67.988H420.855V28.447h10.616v6.27Z" transform="translate(-24.209 -6.907)" fill="#fff"/>
    </g>
  </g>
</svg>
